<mxfile host="app.diagrams.net" modified="2023-05-15T04:04:26.659Z" agent="Mozilla/5.0 (Windows NT 10.0; Win64; x64) AppleWebKit/537.36 (KHTML, like Gecko) Chrome/113.0.0.0 Safari/537.36" etag="NHWifg2HWHP9fqJkMs9n" version="21.2.9" type="github">
  <diagram name="Página-1" id="9HKZO_ArU4TBJ1OX-goD">
    <mxGraphModel dx="2243" dy="676" grid="1" gridSize="10" guides="1" tooltips="1" connect="1" arrows="1" fold="1" page="1" pageScale="1" pageWidth="827" pageHeight="1169" math="0" shadow="0">
      <root>
        <mxCell id="0" />
        <mxCell id="1" parent="0" />
        <mxCell id="0BI2U8GPxlZhYf48KA6D-1" value="&amp;lt;&amp;lt;&lt;b&gt;Red&lt;/b&gt;&amp;gt;&amp;gt;&amp;nbsp; Red local" style="shape=cube;whiteSpace=wrap;html=1;boundedLbl=1;backgroundOutline=1;darkOpacity=0.05;darkOpacity2=0.1;" vertex="1" parent="1">
          <mxGeometry x="-20" y="320" width="450" height="60" as="geometry" />
        </mxCell>
        <mxCell id="0BI2U8GPxlZhYf48KA6D-2" value="&amp;lt;&amp;lt;&lt;b&gt;Device&lt;/b&gt;&amp;gt;&amp;gt;&lt;br&gt;Computadora&amp;nbsp;&lt;br&gt;Administrador" style="shape=cube;whiteSpace=wrap;html=1;boundedLbl=1;backgroundOutline=1;darkOpacity=0.05;darkOpacity2=0.1;" vertex="1" parent="1">
          <mxGeometry x="20" y="490" width="120" height="80" as="geometry" />
        </mxCell>
        <mxCell id="0BI2U8GPxlZhYf48KA6D-3" value="&amp;lt;&amp;lt;&lt;b&gt;Device&lt;/b&gt;&amp;gt;&amp;gt;&lt;br&gt;Computadora&lt;br&gt;Ventailla2" style="shape=cube;whiteSpace=wrap;html=1;boundedLbl=1;backgroundOutline=1;darkOpacity=0.05;darkOpacity2=0.1;" vertex="1" parent="1">
          <mxGeometry x="294" y="490" width="120" height="80" as="geometry" />
        </mxCell>
        <mxCell id="0BI2U8GPxlZhYf48KA6D-4" value="&amp;lt;&amp;lt;&lt;b&gt;Device&lt;/b&gt;&amp;gt;&amp;gt;&lt;br&gt;Computadora&lt;br&gt;Ventanilla1" style="shape=cube;whiteSpace=wrap;html=1;boundedLbl=1;backgroundOutline=1;darkOpacity=0.05;darkOpacity2=0.1;" vertex="1" parent="1">
          <mxGeometry x="150" y="490" width="120" height="80" as="geometry" />
        </mxCell>
        <mxCell id="0BI2U8GPxlZhYf48KA6D-5" value="&amp;lt;&amp;lt;&lt;b&gt;Servidor&lt;/b&gt;&amp;gt;&amp;gt;&lt;br&gt;&lt;br&gt;Servidor Publico" style="shape=cube;whiteSpace=wrap;html=1;boundedLbl=1;backgroundOutline=1;darkOpacity=0.05;darkOpacity2=0.1;" vertex="1" parent="1">
          <mxGeometry x="90" y="50" width="141.25" height="90" as="geometry" />
        </mxCell>
        <mxCell id="0BI2U8GPxlZhYf48KA6D-8" style="rounded=0;orthogonalLoop=1;jettySize=auto;html=1;exitX=0.16;exitY=0.55;exitDx=0;exitDy=0;exitPerimeter=0;" edge="1" parent="1" source="0BI2U8GPxlZhYf48KA6D-7">
          <mxGeometry relative="1" as="geometry">
            <mxPoint x="230" y="101" as="targetPoint" />
          </mxGeometry>
        </mxCell>
        <mxCell id="0BI2U8GPxlZhYf48KA6D-7" value="&amp;lt;&amp;lt;&lt;b&gt;Servidor&lt;/b&gt;&amp;gt;&amp;gt;&lt;br&gt;CLOUD" style="ellipse;shape=cloud;whiteSpace=wrap;html=1;" vertex="1" parent="1">
          <mxGeometry x="276" y="30" width="156" height="130" as="geometry" />
        </mxCell>
        <mxCell id="0BI2U8GPxlZhYf48KA6D-9" value="Farmacia" style="shape=umlFrame;whiteSpace=wrap;html=1;pointerEvents=0;width=90;height=30;" vertex="1" parent="1">
          <mxGeometry x="-10" y="440" width="430" height="144" as="geometry" />
        </mxCell>
        <mxCell id="0BI2U8GPxlZhYf48KA6D-10" value="Cliente/consumidor" style="shape=umlFrame;whiteSpace=wrap;html=1;pointerEvents=0;width=130;height=30;" vertex="1" parent="1">
          <mxGeometry x="470" y="380" width="330" height="220" as="geometry" />
        </mxCell>
        <mxCell id="0BI2U8GPxlZhYf48KA6D-11" value="&lt;b&gt;Modo de Pago&lt;/b&gt;&lt;br&gt;* Efectivo&lt;br&gt;* Tarjeta (credito/debito)" style="shape=module;align=left;spacingLeft=20;align=center;verticalAlign=top;whiteSpace=wrap;html=1;" vertex="1" parent="1">
          <mxGeometry x="490" y="430" width="190" height="65" as="geometry" />
        </mxCell>
        <mxCell id="0BI2U8GPxlZhYf48KA6D-12" value="&lt;b&gt;Impresion de &lt;br&gt;Comprobante&lt;/b&gt;&lt;br&gt;* Factura y detalle&lt;br&gt;de compra&amp;nbsp;" style="shape=module;align=left;spacingLeft=20;align=center;verticalAlign=top;whiteSpace=wrap;html=1;" vertex="1" parent="1">
          <mxGeometry x="490" y="514" width="190" height="70" as="geometry" />
        </mxCell>
        <mxCell id="0BI2U8GPxlZhYf48KA6D-14" value="Usuario" style="shape=umlActor;verticalLabelPosition=bottom;verticalAlign=top;html=1;" vertex="1" parent="1">
          <mxGeometry x="750" y="450" width="30" height="60" as="geometry" />
        </mxCell>
        <mxCell id="0BI2U8GPxlZhYf48KA6D-15" value="" style="endArrow=none;dashed=1;html=1;dashPattern=1 3;strokeWidth=2;rounded=0;entryX=1;entryY=0.5;entryDx=0;entryDy=0;exitX=0.5;exitY=0.5;exitDx=0;exitDy=0;exitPerimeter=0;" edge="1" parent="1" source="0BI2U8GPxlZhYf48KA6D-14" target="0BI2U8GPxlZhYf48KA6D-11">
          <mxGeometry width="50" height="50" relative="1" as="geometry">
            <mxPoint x="490" y="510" as="sourcePoint" />
            <mxPoint x="540" y="460" as="targetPoint" />
            <Array as="points" />
          </mxGeometry>
        </mxCell>
        <mxCell id="0BI2U8GPxlZhYf48KA6D-17" value="" style="endArrow=classic;html=1;rounded=0;exitX=1;exitY=0.5;exitDx=0;exitDy=0;" edge="1" parent="1" source="0BI2U8GPxlZhYf48KA6D-12" target="0BI2U8GPxlZhYf48KA6D-14">
          <mxGeometry width="50" height="50" relative="1" as="geometry">
            <mxPoint x="490" y="510" as="sourcePoint" />
            <mxPoint x="540" y="460" as="targetPoint" />
          </mxGeometry>
        </mxCell>
        <mxCell id="0BI2U8GPxlZhYf48KA6D-25" value="&amp;lt;&amp;lt;&lt;b&gt;Device&lt;/b&gt;&amp;gt;&amp;gt;&lt;br&gt;DB Base" style="verticalAlign=top;align=left;spacingTop=8;spacingLeft=2;spacingRight=12;shape=cube;size=10;direction=south;fontStyle=4;html=1;whiteSpace=wrap;" vertex="1" parent="1">
          <mxGeometry x="80" y="170" width="177.5" height="120" as="geometry" />
        </mxCell>
        <mxCell id="0BI2U8GPxlZhYf48KA6D-22" value="«&lt;b&gt;Artifact&lt;/b&gt;»&lt;br&gt;MySql&lt;br&gt;Workbench" style="html=1;dropTarget=0;whiteSpace=wrap;" vertex="1" parent="1">
          <mxGeometry x="90" y="225" width="145" height="50" as="geometry" />
        </mxCell>
        <mxCell id="0BI2U8GPxlZhYf48KA6D-23" value="" style="shape=module;jettyWidth=8;jettyHeight=4;" vertex="1" parent="0BI2U8GPxlZhYf48KA6D-22">
          <mxGeometry x="1" width="20" height="20" relative="1" as="geometry">
            <mxPoint x="-27" y="7" as="offset" />
          </mxGeometry>
        </mxCell>
        <mxCell id="0BI2U8GPxlZhYf48KA6D-27" value="" style="endArrow=classic;html=1;rounded=0;entryX=0.014;entryY=0.52;entryDx=0;entryDy=0;entryPerimeter=0;" edge="1" parent="1" target="0BI2U8GPxlZhYf48KA6D-25">
          <mxGeometry width="50" height="50" relative="1" as="geometry">
            <mxPoint x="165" y="140" as="sourcePoint" />
            <mxPoint x="540" y="330" as="targetPoint" />
          </mxGeometry>
        </mxCell>
        <mxCell id="0BI2U8GPxlZhYf48KA6D-28" value="" style="endArrow=classic;html=1;rounded=0;exitX=0.988;exitY=0.46;exitDx=0;exitDy=0;exitPerimeter=0;entryX=0.436;entryY=-0.031;entryDx=0;entryDy=0;entryPerimeter=0;" edge="1" parent="1" source="0BI2U8GPxlZhYf48KA6D-25" target="0BI2U8GPxlZhYf48KA6D-1">
          <mxGeometry width="50" height="50" relative="1" as="geometry">
            <mxPoint x="190" y="120" as="sourcePoint" />
            <mxPoint x="200" y="320" as="targetPoint" />
            <Array as="points" />
          </mxGeometry>
        </mxCell>
        <mxCell id="0BI2U8GPxlZhYf48KA6D-29" value="" style="endArrow=classic;html=1;rounded=0;entryX=-0.002;entryY=0.536;entryDx=0;entryDy=0;entryPerimeter=0;exitX=0;exitY=0;exitDx=120;exitDy=50;exitPerimeter=0;" edge="1" parent="1" source="0BI2U8GPxlZhYf48KA6D-3" target="0BI2U8GPxlZhYf48KA6D-10">
          <mxGeometry width="50" height="50" relative="1" as="geometry">
            <mxPoint x="430" y="540" as="sourcePoint" />
            <mxPoint x="540" y="390" as="targetPoint" />
            <Array as="points">
              <mxPoint x="440" y="540" />
              <mxPoint x="440" y="498" />
            </Array>
          </mxGeometry>
        </mxCell>
        <mxCell id="0BI2U8GPxlZhYf48KA6D-32" value="" style="endArrow=classic;html=1;rounded=0;entryX=0.511;entryY=1.02;entryDx=0;entryDy=0;entryPerimeter=0;exitX=0;exitY=0;exitDx=70;exitDy=80;exitPerimeter=0;" edge="1" parent="1" source="0BI2U8GPxlZhYf48KA6D-4" target="0BI2U8GPxlZhYf48KA6D-10">
          <mxGeometry width="50" height="50" relative="1" as="geometry">
            <mxPoint x="490" y="440" as="sourcePoint" />
            <mxPoint x="540" y="390" as="targetPoint" />
            <Array as="points">
              <mxPoint x="220" y="630" />
              <mxPoint x="639" y="630" />
            </Array>
          </mxGeometry>
        </mxCell>
        <mxCell id="0BI2U8GPxlZhYf48KA6D-35" value="" style="endArrow=classic;startArrow=classic;html=1;rounded=0;entryX=0.455;entryY=1.036;entryDx=0;entryDy=0;entryPerimeter=0;exitX=0;exitY=0;exitDx=50;exitDy=0;exitPerimeter=0;" edge="1" parent="1" source="0BI2U8GPxlZhYf48KA6D-2" target="0BI2U8GPxlZhYf48KA6D-1">
          <mxGeometry width="50" height="50" relative="1" as="geometry">
            <mxPoint x="490" y="440" as="sourcePoint" />
            <mxPoint x="540" y="390" as="targetPoint" />
          </mxGeometry>
        </mxCell>
        <mxCell id="0BI2U8GPxlZhYf48KA6D-37" value="" style="endArrow=classic;startArrow=classic;html=1;rounded=0;exitX=0;exitY=0;exitDx=50;exitDy=0;exitPerimeter=0;" edge="1" parent="1" source="0BI2U8GPxlZhYf48KA6D-4">
          <mxGeometry width="50" height="50" relative="1" as="geometry">
            <mxPoint x="490" y="440" as="sourcePoint" />
            <mxPoint x="200" y="380" as="targetPoint" />
          </mxGeometry>
        </mxCell>
        <mxCell id="0BI2U8GPxlZhYf48KA6D-38" value="" style="endArrow=classic;startArrow=classic;html=1;rounded=0;entryX=0;entryY=0;entryDx=235;entryDy=60;entryPerimeter=0;exitX=0;exitY=0;exitDx=50;exitDy=0;exitPerimeter=0;" edge="1" parent="1" source="0BI2U8GPxlZhYf48KA6D-3" target="0BI2U8GPxlZhYf48KA6D-1">
          <mxGeometry width="50" height="50" relative="1" as="geometry">
            <mxPoint x="490" y="440" as="sourcePoint" />
            <mxPoint x="540" y="390" as="targetPoint" />
          </mxGeometry>
        </mxCell>
        <mxCell id="0BI2U8GPxlZhYf48KA6D-39" value="&amp;lt;&amp;lt;&lt;b&gt;Sistema de base de datos&lt;/b&gt;&amp;gt;&amp;gt;" style="verticalAlign=top;align=left;spacingTop=8;spacingLeft=2;spacingRight=12;shape=cube;size=10;direction=south;fontStyle=4;html=1;whiteSpace=wrap;" vertex="1" parent="1">
          <mxGeometry x="500" y="80" width="200" height="260" as="geometry" />
        </mxCell>
        <mxCell id="0BI2U8GPxlZhYf48KA6D-40" value="«&lt;b&gt;Tabla&lt;/b&gt;»&lt;br&gt;Usuarios" style="html=1;dropTarget=0;whiteSpace=wrap;" vertex="1" parent="1">
          <mxGeometry x="512.5" y="130" width="145" height="40" as="geometry" />
        </mxCell>
        <mxCell id="0BI2U8GPxlZhYf48KA6D-41" value="" style="shape=module;jettyWidth=8;jettyHeight=4;" vertex="1" parent="0BI2U8GPxlZhYf48KA6D-40">
          <mxGeometry x="1" width="20" height="20" relative="1" as="geometry">
            <mxPoint x="-27" y="7" as="offset" />
          </mxGeometry>
        </mxCell>
        <mxCell id="0BI2U8GPxlZhYf48KA6D-42" value="«&lt;b&gt;Tabla&lt;/b&gt;»&lt;br&gt;Proveedores" style="html=1;dropTarget=0;whiteSpace=wrap;" vertex="1" parent="1">
          <mxGeometry x="515" y="180" width="145" height="40" as="geometry" />
        </mxCell>
        <mxCell id="0BI2U8GPxlZhYf48KA6D-43" value="" style="shape=module;jettyWidth=8;jettyHeight=4;" vertex="1" parent="0BI2U8GPxlZhYf48KA6D-42">
          <mxGeometry x="1" width="20" height="20" relative="1" as="geometry">
            <mxPoint x="-27" y="7" as="offset" />
          </mxGeometry>
        </mxCell>
        <mxCell id="0BI2U8GPxlZhYf48KA6D-44" value="«&lt;b&gt;Tabla&lt;/b&gt;»&lt;br&gt;Productos&amp;nbsp;" style="html=1;dropTarget=0;whiteSpace=wrap;" vertex="1" parent="1">
          <mxGeometry x="515" y="230" width="145" height="40" as="geometry" />
        </mxCell>
        <mxCell id="0BI2U8GPxlZhYf48KA6D-45" value="" style="shape=module;jettyWidth=8;jettyHeight=4;" vertex="1" parent="0BI2U8GPxlZhYf48KA6D-44">
          <mxGeometry x="1" width="20" height="20" relative="1" as="geometry">
            <mxPoint x="-27" y="7" as="offset" />
          </mxGeometry>
        </mxCell>
        <mxCell id="0BI2U8GPxlZhYf48KA6D-46" value="«&lt;b&gt;Tabla&lt;/b&gt;»&lt;br&gt;Ventas" style="html=1;dropTarget=0;whiteSpace=wrap;" vertex="1" parent="1">
          <mxGeometry x="515" y="280" width="145" height="40" as="geometry" />
        </mxCell>
        <mxCell id="0BI2U8GPxlZhYf48KA6D-47" value="" style="shape=module;jettyWidth=8;jettyHeight=4;" vertex="1" parent="0BI2U8GPxlZhYf48KA6D-46">
          <mxGeometry x="1" width="20" height="20" relative="1" as="geometry">
            <mxPoint x="-27" y="7" as="offset" />
          </mxGeometry>
        </mxCell>
        <mxCell id="0BI2U8GPxlZhYf48KA6D-49" value="DB" style="html=1;verticalAlign=bottom;endArrow=open;dashed=1;endSize=8;edgeStyle=elbowEdgeStyle;elbow=vertical;curved=0;rounded=0;exitX=0;exitY=0;exitDx=135;exitDy=190;exitPerimeter=0;" edge="1" parent="1" source="0BI2U8GPxlZhYf48KA6D-39">
          <mxGeometry relative="1" as="geometry">
            <mxPoint x="362.5" y="210.05" as="sourcePoint" />
            <mxPoint x="260" y="215" as="targetPoint" />
          </mxGeometry>
        </mxCell>
      </root>
    </mxGraphModel>
  </diagram>
</mxfile>
